{
    "asset" : {
        "generator" : "Khronos glTF Blender I/O v3.4.50",
        "version" : "2.0"
    },
    "scene" : 0,
    "scenes" : [
        {
            "name" : "Scene",
            "nodes" : [
                0
            ]
        }
    ],
    "nodes" : [
        {
            "mesh" : 0,
            "name" : "Cylinder",
            "rotation" : [
                0,
                0.06188376620411873,
                0,
                0.9980833530426025
            ],
            "scale" : [
                0.7673043608665466,
                0.1308482587337494,
                0.7673043608665466
            ]
        }
    ],
    "materials" : [
        {
            "doubleSided" : true,
            "name" : "gearcolor",
            "pbrMetallicRoughness" : {
                "baseColorFactor" : [
                    0.7628057599067688,
                    0.8000000715255737,
                    0.8000000715255737,
                    1
                ],
                "metallicFactor" : 0.5636363625526428,
                "roughnessFactor" : 0.1090908944606781
            }
        },
        {
            "doubleSided" : true,
            "name" : "ringcolor",
            "pbrMetallicRoughness" : {
                "baseColorFactor" : [
                    0.16362783312797546,
                    0.16019076108932495,
                    0.6832423806190491,
                    1
                ],
                "metallicFactor" : 0.34545454382896423,
                "roughnessFactor" : 0.0727272629737854
            }
        }
    ],
    "meshes" : [
        {
            "name" : "Cylinder.002",
            "primitives" : [
                {
                    "attributes" : {
                        "POSITION" : 0,
                        "TEXCOORD_0" : 1,
                        "NORMAL" : 2
                    },
                    "indices" : 3,
                    "material" : 0
                },
                {
                    "attributes" : {
                        "POSITION" : 4,
                        "TEXCOORD_0" : 5,
                        "NORMAL" : 6
                    },
                    "indices" : 7,
                    "material" : 1
                }
            ]
        }
    ],
    "accessors" : [
        {
            "bufferView" : 0,
            "componentType" : 5126,
            "count" : 3314,
            "max" : [
                1.2745418548583984,
                1,
                1.2745418548583984
            ],
            "min" : [
                -1.2745418548583984,
                -1.007926344871521,
                -1.2745418548583984
            ],
            "type" : "VEC3"
        },
        {
            "bufferView" : 1,
            "componentType" : 5126,
            "count" : 3314,
            "type" : "VEC2"
        },
        {
            "bufferView" : 2,
            "componentType" : 5126,
            "count" : 3314,
            "type" : "VEC3"
        },
        {
            "bufferView" : 3,
            "componentType" : 5123,
            "count" : 3600,
            "type" : "SCALAR"
        },
        {
            "bufferView" : 4,
            "componentType" : 5126,
            "count" : 7406,
            "max" : [
                0.7255389094352722,
                0.9825541377067566,
                0.7255390286445618
            ],
            "min" : [
                -0.725538969039917,
                0.47160157561302185,
                -0.725538969039917
            ],
            "type" : "VEC3"
        },
        {
            "bufferView" : 5,
            "componentType" : 5126,
            "count" : 7406,
            "type" : "VEC2"
        },
        {
            "bufferView" : 6,
            "componentType" : 5126,
            "count" : 7406,
            "type" : "VEC3"
        },
        {
            "bufferView" : 7,
            "componentType" : 5123,
            "count" : 7560,
            "type" : "SCALAR"
        }
    ],
    "bufferViews" : [
        {
            "buffer" : 0,
            "byteLength" : 39768,
            "byteOffset" : 0,
            "target" : 34962
        },
        {
            "buffer" : 0,
            "byteLength" : 26512,
            "byteOffset" : 39768,
            "target" : 34962
        },
        {
            "buffer" : 0,
            "byteLength" : 39768,
            "byteOffset" : 66280,
            "target" : 34962
        },
        {
            "buffer" : 0,
            "byteLength" : 7200,
            "byteOffset" : 106048,
            "target" : 34963
        },
        {
            "buffer" : 0,
            "byteLength" : 88872,
            "byteOffset" : 113248,
            "target" : 34962
        },
        {
            "buffer" : 0,
            "byteLength" : 59248,
            "byteOffset" : 202120,
            "target" : 34962
        },
        {
            "buffer" : 0,
            "byteLength" : 88872,
            "byteOffset" : 261368,
            "target" : 34962
        },
        {
            "buffer" : 0,
            "byteLength" : 15120,
            "byteOffset" : 350240,
            "target" : 34963
        }
    ],
    "buffers" : [
        {
            "byteLength" : 365360,
            "uri" : "data:application/octet-stream;base64,"
        }
    ]
}
